{"title":"12 Monkeys (1995) 1080p","uid":11245889,"size":4120920316,"categoryP":"video","categoryS":"hd___movies","magnet":"?xt=urn:btih:87fcc490505acad541cd3b751735983a82d6642d&amp;dn=12+Monkeys+%281995%29+1080p&amp;tr=udp%3A%2F%2Ftracker.openbittorrent.com%3A80&amp;tr=udp%3A%2F%2Fopen.demonii.com%3A1337&amp;tr=udp%3A%2F%2Ftracker.coppersurfer.tk%3A6969&amp;tr=udp%3A%2F%2Fexodus.desync.com%3A6969","seeders":13,"leechers":0,"uploader":"AlienMethod","files":7,"time":1413738492,"description":"MP4/x264\n2-Channel AAC@128kbps (audio 1)\n6-Channel AC3@448kbps (audio 2)\nEnglish Subs Incl.\n\n&quot;In a future world devastated by disease, a convict is sent back in time to gather information about the man-made virus that wiped out most of the human population on the planet.&quot;\n\nID : 1\nFormat : AVC\nFormat/Info : Advanced Video Codec\nFormat profile : &lt;a class=&quot;__cf_email__&quot; href=&quot;/cdn-cgi/l/email-protection&quot; data-cfemail=&quot;5d15343a351d1168736d&quot;&gt;[email&amp;#160;protected]&lt;/a&gt;&lt;script cf-hash='f9e31' type=&quot;text/javascript&quot;&gt;\n/* &lt;![CDATA[ */!function(){try{var t=&quot;currentScript&quot;in document?document.currentScript:function(){for(var t=document.getElementsByTagName(&quot;script&quot;),e=t.length;e--;)if(t[e].getAttribute(&quot;cf-hash&quot;))return t[e]}();if(t&amp;&amp;t.previousSibling){var e,r,n,i,c=t.previousSibling,a=c.getAttribute(&quot;data-cfemail&quot;);if(a){for(e=&quot;&quot;,r=parseInt(a.substr(0,2),16),n=2;a.length-n;n+=2)i=parseInt(a.substr(n,2),16)^r,e+=String.fromCharCode(i);e=document.createTextNode(e),c.parentNode.replaceChild(e,c)}}}catch(u){}}();/* ]]&gt; */&lt;/script&gt;\nFormat settings, CABAC : Yes\nFormat settings, ReFrames : 8 frames\nCodec ID : avc1\nCodec ID/Info : Advanced Video Coding\nDuration : 2h 9mn\nBit rate : 3 666 Kbps\nMaximum bit rate : 11.6 Mbps\nWidth : 1 920 pixels\nHeight : 1 080 pixels\nDisplay aspect ratio : 16:9\nFrame rate mode : Constant\nFrame rate : 23.976 fps\nColor space : YUV\nChroma subsampling : 4:2:0\nBit depth : 8 bits\nScan type : Progressive\nBits/(Pixel*Frame) : 0.074\nStream size : 3.32 GiB (86%)\nTitle : 12.Monkeys.VideoEncode.h264\nWriting library : x264 core 142 r2479 dd79a61\nEncoded date : UTC 2014-10-11 19:48:28\nTagged date : UTC 2014-10-11 19:48:51\n\nAudio #1\nID : 2\nFormat : AAC\nFormat/Info : Advanced Audio Codec\nFormat profile : LC\nCodec ID : 40\nDuration : 2h 9mn\nBit rate mode : Variable\nBit rate : 122 Kbps\nMaximum bit rate : 153 Kbps\nChannel(s) : 2 channels\nChannel positions : Front: L R\nSampling rate : 48.0 KHz\nCompression mode : Lossy\nStream size : 113 MiB (3%)\nTitle : 12.Monkeys.1995.AAC.m4a\nEncoded date : UTC 2014-10-11 19:48:43\nTagged date : UTC 2014-10-11 19:48:51\n\nAudio #2\nID : 3\nFormat : AC-3\nFormat/Info : Audio Coding 3\nMode extension : CM (complete main)\nFormat settings, Endianness : Big\nCodec ID : ac-3\nDuration : 2h 9mn\nBit rate mode : Constant\nBit rate : 448 Kbps\nChannel(s) : 6 channels\nChannel positions : Front: L C R, Side: L R, LFE\nSampling rate : 48.0 KHz\nBit depth : 16 bits\nCompression mode : Lossy\nStream size : 415 MiB (11%)\nTitle : 12.Monkeys.1995.AC3.ac3\nEncoded date : UTC 2014-10-11 19:48:44\nTagged date : UTC 2014-10-11 19:48:51\n\nm/ AM m/","torrent":{"xt":"urn:btih:87fcc490505acad541cd3b751735983a82d6642d","amp;dn":"12+Monkeys+%281995%29+1080p","amp;tr":["udp%3A%2F%2Ftracker.openbittorrent.com%3A80","udp%3A%2F%2Fopen.demonii.com%3A1337","udp%3A%2F%2Ftracker.coppersurfer.tk%3A6969","udp%3A%2F%2Fexodus.desync.com%3A6969"],"infoHash":"87fcc490505acad541cd3b751735983a82d6642d","infoHashBuffer":{"type":"Buffer","data":[135,252,196,144,80,90,202,213,65,205,59,117,23,53,152,58,130,214,100,45]},"announce":[],"urlList":[]}}